<?xml version="1.0" encoding="UTF-8" standalone="no"?>
<!-- Created with Inkscape (http://www.inkscape.org/) -->
<!DOCTYPE svg  PUBLIC '-//W3C//DTD SVG 1.1//EN'  'http://www.w3.org/Graphics/SVG/1.1/DTD/svg11.dtd' [
	<!ENTITY stroke_color "#010101">
	<!ENTITY fill_color "#FFFFFF">
]>
<svg
   xmlns:dc="http://purl.org/dc/elements/1.1/"
   xmlns:cc="http://creativecommons.org/ns#"
   xmlns:rdf="http://www.w3.org/1999/02/22-rdf-syntax-ns#"
   xmlns:svg="http://www.w3.org/2000/svg"
   xmlns="http://www.w3.org/2000/svg"
   xmlns:sodipodi="http://sodipodi.sourceforge.net/DTD/sodipodi-0.dtd"
   xmlns:inkscape="http://www.inkscape.org/namespaces/inkscape"
   width="64px"
   height="64px"
   id="svg2985"
   version="1.1"
   inkscape:version="0.48.4 r9939"
   sodipodi:docname="drawing_new.svg">
  <defs
     id="defs2987" />
  <sodipodi:namedview
     id="base"
     pagecolor="#ffffff"
     bordercolor="#666666"
     borderopacity="1.0"
     inkscape:pageopacity="0.0"
     inkscape:pageshadow="2"
     inkscape:zoom="5.4999999"
     inkscape:cx="27.989533"
     inkscape:cy="28.844933"
     inkscape:current-layer="layer1"
     showgrid="true"
     inkscape:document-units="px"
     inkscape:grid-bbox="true"
     inkscape:window-width="1309"
     inkscape:window-height="744"
     inkscape:window-x="57"
     inkscape:window-y="24"
     inkscape:window-maximized="1" />
  <metadata
     id="metadata2990">
    <rdf:RDF>
      <cc:Work
         rdf:about="">
        <dc:format>image/svg+xml</dc:format>
        <dc:type
           rdf:resource="http://purl.org/dc/dcmitype/StillImage" />
        <dc:title></dc:title>
      </cc:Work>
    </rdf:RDF>
  </metadata>
  <g
     id="layer1"
     inkscape:label="Layer 1"
     inkscape:groupmode="layer">
    <path
       d="M 32.09375 11.4375 C 24.514472 11.4375 17.919722 15.500782 14.53125 21.5 C 7.0519982 21.820981 1.09375 28.154417 1.09375 35.90625 C 1.09375 43.863328 7.3687525 50.3125 15.125 50.3125 C 15.451675 50.3125 15.772645 50.272516 16.09375 50.25 L 28.40625 50.25 L 29.15625 51.65625 L 32 56.90625 L 35.125 51.8125 L 36.0625 50.25 L 49.59375 50.25 C 49.809368 50.261306 50.031665 50.28125 50.25 50.28125 C 57.236705 50.28125 62.90625 44.414567 62.90625 37.1875 C 62.90625 30.180783 57.566563 24.498569 50.875 24.15625 C 48.087387 16.744936 40.737464 11.4375 32.09375 11.4375 z "
       fill="&fill_color;" stroke="&stroke_color;" stroke-width="1.5" />
  />
  </g>
</svg>
