<?xml version="1.0" ?><!DOCTYPE svg  PUBLIC '-//W3C//DTD SVG 1.1//EN'  'http://www.w3.org/Graphics/SVG/1.1/DTD/svg11.dtd' [
	<!ENTITY stroke_color "#010101">
	<!ENTITY fill_color "#FFFFFF">
]><svg enable-background="new 0 0 55 55" height="55px" version="1.1" viewBox="0 0 55 55" width="55px" x="0px" xml:space="preserve" xmlns="http://www.w3.org/2000/svg" xmlns:xlink="http://www.w3.org/1999/xlink" y="0px"><g display="block" id="stock-xo_1_">
	<path d="m 29.28125,19.09375 c -5.468231,0 -10.230746,2.985443 -12.625,7.34375 -0.420477,-0.0534 -0.84627,-0.0625 -1.28125,-0.0625 -5.5730552,0 -10.09375,4.520695 -10.09375,10.09375 0,5.573055 4.5206948,10.0625 10.09375,10.0625 0.02109,0 0.04144,1.29e-4 0.0625,0 l 0,0.03125 0.3125,0 2.40625,4.3125 2.625,-4.3125 7.03125,0 c 0.479551,0.04699 0.97635,0.0625 1.46875,0.0625 0.4924,0 0.957949,-0.01551 1.4375,-0.0625 l 17.46875,0 0,-0.03125 c 0.03181,4.82e-4 0.06182,0 0.09375,0 3.414124,0 6.1875,-2.742126 6.1875,-6.15625 0,-3.414124 -2.773376,-6.1875 -6.1875,-6.1875 -0.0745,0 -0.14489,-0.0026 -0.21875,0 -0.881668,-2.363231 -2.742745,-4.260472 -5.125,-5.28125 -1.766048,-5.666504 -7.208293,-9.8125 -13.65625,-9.8125 z" fill="&fill_color;" stroke="&stroke_color;" stroke-width="3.5"/>
</g></svg>
